<svg xmlns="http://www.w3.org/2000/svg" viewBox="0 0 120 120" role="img" aria-labelledby="title">
  <title>Угольный колосс</title>
  <defs>
    <linearGradient id="ec-bg" x1="0%" y1="0%" x2="100%" y2="100%">
      <stop offset="0%" stop-color="#180c05" />
      <stop offset="100%" stop-color="#3b1f0d" />
    </linearGradient>
    <radialGradient id="ec-core" cx="50%" cy="40%" r="45%">
      <stop offset="0%" stop-color="#ff9640" stop-opacity="0.9" />
      <stop offset="100%" stop-color="#7a2d11" stop-opacity="0.2" />
    </radialGradient>
    <linearGradient id="ec-stone" x1="0%" y1="0%" x2="100%" y2="100%">
      <stop offset="0%" stop-color="#4b4f58" />
      <stop offset="100%" stop-color="#292c33" />
    </linearGradient>
  </defs>
  <rect width="120" height="120" fill="url(#ec-bg)" rx="18" />
  <circle cx="60" cy="52" r="40" fill="url(#ec-core)" />
  <path d="M32 86c4-18 12-46 32-58 16-9 34-6 46 4-6 18-8 38-6 52-14-8-28-8-42 2-12 8-22 6-30 0z" fill="url(#ec-stone)" />
  <path d="M52 40c6-8 16-12 26-12 6 0 12 2 16 6-8 0-16 2-24 10-6 6-12 8-18 6-4-1-6-4-8-10z" fill="#ff9640" opacity="0.45" />
  <path d="M60 66l12-6 12 6-12 26h-12z" fill="#ff6b25" opacity="0.8" />
  <rect x="42" y="58" width="12" height="28" rx="5" fill="#444a54" />
  <rect x="66" y="58" width="12" height="28" rx="5" fill="#444a54" />
  <circle cx="58" cy="50" r="4" fill="#ffd8a4" />
  <circle cx="74" cy="50" r="4" fill="#ffd8a4" />
</svg>
